<?xml version="1.0" encoding="UTF-8" standalone="no"?>
<!-- Created with Inkscape (http://www.inkscape.org/) -->

<svg
   xmlns:dc="http://purl.org/dc/elements/1.1/"
   xmlns:cc="http://creativecommons.org/ns#"
   xmlns:rdf="http://www.w3.org/1999/02/22-rdf-syntax-ns#"
   xmlns:svg="http://www.w3.org/2000/svg"
   xmlns="http://www.w3.org/2000/svg"
   xmlns:sodipodi="http://sodipodi.sourceforge.net/DTD/sodipodi-0.dtd"
   xmlns:inkscape="http://www.inkscape.org/namespaces/inkscape"
   width="179"
   height="197"
   viewBox="0 0 179 197"
   id="svg4657"
   version="1.1"
   inkscape:version="0.91 r13725">
  <defs
     id="defs4659" />
  <sodipodi:namedview
     id="base"
     pagecolor="#ffffff"
     bordercolor="#666666"
     borderopacity="1.0"
     inkscape:pageopacity="0.0"
     inkscape:pageshadow="2"
     inkscape:zoom="0.35"
     inkscape:cx="1381.7512"
     inkscape:cy="909.91006"
     inkscape:document-units="px"
     inkscape:current-layer="layer1"
     showgrid="false"
     inkscape:window-width="1920"
     inkscape:window-height="993"
     inkscape:window-x="0"
     inkscape:window-y="24"
     inkscape:window-maximized="1"
     units="px" />
  <metadata
     id="metadata4662">
    <rdf:RDF>
      <cc:Work
         rdf:about="">
        <dc:format>image/svg+xml</dc:format>
        <dc:type
           rdf:resource="http://purl.org/dc/dcmitype/StillImage" />
        <dc:title></dc:title>
      </cc:Work>
    </rdf:RDF>
  </metadata>
  <g
     inkscape:label="Layer 1"
     inkscape:groupmode="layer"
     id="layer1"
     transform="translate(0,-855.3622)">
    <g
       id="Layer1035"
       transform="matrix(5.1961021,0,0,5.0065568,-234.11025,579.14345)">
      <g
         id="Layer1036">
        <path
           d="m 56.1689,55.1714 9.2419,0 c 2.7152,0 4.935,1.7425 4.935,3.874 l 0,24.6354 c 0,2.1315 -2.2198,3.8746 -4.935,3.8746 l -9.2419,0 c -2.7153,0 -4.9358,-1.7431 -4.9358,-3.8746 l 0,-24.6354 c 0,-2.1315 2.2205,-3.874 4.9358,-3.874 z"
           style="fill:#eceded;fill-rule:evenodd"
           id="path1227"
           inkscape:connector-curvature="0" />
        <path
           d="m 53.462,60.2965 14.7334,0 0,21.9906 -14.7334,0 0,-21.9906 z"
           style="fill:#ffffff;fill-rule:evenodd"
           id="path1229"
           inkscape:connector-curvature="0" />
        <path
           d="m 58.5055,57.5244 4.6945,0 c 0.1752,0 0.3173,0.1415 0.3173,0.3162 l 0,0.0011 c 0,0.1747 -0.1421,0.3174 -0.3173,0.3174 l -4.6945,0 c -0.1741,0 -0.3162,-0.1427 -0.3162,-0.3174 l 0,-0.0011 c 0,-0.1747 0.1421,-0.3162 0.3162,-0.3162 z"
           style="fill:#9c9e9f;fill-rule:evenodd"
           id="path1231"
           inkscape:connector-curvature="0" />
        <path
           d="m 53.4621,60.296 14.7334,0 0,21.9912 -14.7334,0 0,-21.9912 z"
           style="fill:#9c9e9f;fill-rule:evenodd"
           id="path1233"
           inkscape:connector-curvature="0" />
        <path
           d="m 60.8336,83.3717 c 0.7552,0 1.3677,0.6129 1.3677,1.3675 0,0.7551 -0.6125,1.3677 -1.3677,1.3677 -0.7548,0 -1.3674,-0.6126 -1.3674,-1.3677 0,-0.7546 0.6126,-1.3675 1.3674,-1.3675 z"
           style="fill:#9c9e9f;fill-rule:evenodd"
           id="path1235"
           inkscape:connector-curvature="0" />
      </g>
      <path
         d="m 62.7459,87.1083 -3.4942,-0.0145 0,3.1357 1.317,0 c -0.0943,1.8286 0.1292,3.4284 1.8769,3.9272 l 14.1589,0.3631 c 1.7366,-0.0908 2.9523,-0.7903 2.8976,-2.8383 l -0.0657,-9.6707 c -0.1572,-1.7157 -1.5772,-2.4874 -3.8527,-2.6404 l -27.758,-0.66 c -2.0194,-0.0361 -2.8406,1.2897 -2.7661,3.5315 l 0.1647,7.6244 c 0.206,1.782 1.5772,2.4152 3.8195,2.4094 l 1.7128,0.1176 0,1.1697 3.7537,0 0,-0.7594 2.5683,-0.0332 0,-1.9473 -2.6672,0 0.0186,-0.7956 -3.6408,-0.0291 0,1.2786 c -2.3873,0.1188 -4.2857,-0.224 -4.2479,-2.5333 l -0.1641,-7.0629 c -0.1187,-1.2082 0.6611,-1.9793 3.2265,-1.8815 l 25.6838,0.8584 c 1.903,-0.0076 2.9459,0.6536 2.7987,2.3431 l 0.0989,8.2518 c 0.1222,1.4037 -0.653,2.1388 -2.3046,2.1783 L 64.4214,93.1335 c -1.746,0.1502 -2.7964,-0.4306 -2.8319,-2.0794 l 0,-0.9899 1.1197,0.0332 0.0367,-2.9891 z"
         style="fill:#eceded;fill-rule:evenodd"
         id="path1237"
         inkscape:connector-curvature="0" />
    </g>
  </g>
</svg>
