<?xml version="1.0" encoding="UTF-8" standalone="no"?>
<!-- Created with Inkscape (http://www.inkscape.org/) -->

<svg
   xmlns:dc="http://purl.org/dc/elements/1.1/"
   xmlns:cc="http://creativecommons.org/ns#"
   xmlns:rdf="http://www.w3.org/1999/02/22-rdf-syntax-ns#"
   xmlns:svg="http://www.w3.org/2000/svg"
   xmlns="http://www.w3.org/2000/svg"
   xmlns:sodipodi="http://sodipodi.sourceforge.net/DTD/sodipodi-0.dtd"
   xmlns:inkscape="http://www.inkscape.org/namespaces/inkscape"
   width="46"
   height="46"
   viewBox="0 0 46 45.999998"
   id="svg4686"
   version="1.1"
   inkscape:version="0.91 r13725">
  <defs
     id="defs4688" />
  <sodipodi:namedview
     id="base"
     pagecolor="#ffffff"
     bordercolor="#666666"
     borderopacity="1.0"
     inkscape:pageopacity="0.0"
     inkscape:pageshadow="2"
     inkscape:zoom="253.42707"
     inkscape:cx="22.646447"
     inkscape:cy="46.184451"
     inkscape:document-units="px"
     inkscape:current-layer="layer1"
     showgrid="false"
     inkscape:window-width="1280"
     inkscape:window-height="937"
     inkscape:window-x="0"
     inkscape:window-y="24"
     inkscape:window-maximized="1"
     units="px" />
  <metadata
     id="metadata4691">
    <rdf:RDF>
      <cc:Work
         rdf:about="">
        <dc:format>image/svg+xml</dc:format>
        <dc:type
           rdf:resource="http://purl.org/dc/dcmitype/StillImage" />
        <dc:title></dc:title>
      </cc:Work>
    </rdf:RDF>
  </metadata>
  <g
     inkscape:label="Layer 1"
     inkscape:groupmode="layer"
     id="layer1"
     transform="translate(0,-1006.3623)">
    <g
       transform="matrix(6.4853481,0,0,6.5126104,-50.070453,328.33878)"
       id="Layer1025">
      <path
         d="m 11.2594,104.3785 c 1.7974,0 3.2553,1.4578 3.2553,3.2553 0,1.7974 -1.4579,3.2553 -3.2553,3.2553 -1.7975,0 -3.2554,-1.4579 -3.2554,-3.2553 0,-1.7975 1.4579,-3.2553 3.2554,-3.2553 z"
         style="fill:none;stroke:#ffffff;stroke-width:0.56690001;stroke-linecap:butt;stroke-linejoin:miter;stroke-dasharray:none"
         id="path1297"
         inkscape:connector-curvature="0" />
      <path
         d="m 11.2594,107.0008 c 0.3495,0 0.6329,0.2835 0.6329,0.633 0,0.3492 -0.2834,0.6327 -0.6329,0.6327 -0.3493,0 -0.6327,-0.2835 -0.6327,-0.6327 0,-0.3495 0.2834,-0.633 0.6327,-0.633 z"
         style="fill:none;stroke:#ffffff;stroke-width:0.28349999;stroke-linecap:butt;stroke-linejoin:miter;stroke-dasharray:none"
         id="path1299"
         inkscape:connector-curvature="0" />
      <path
         d="m 10.0053,105.4463 c 0.3456,0 0.6256,0.28 0.6256,0.6256 0,0.3455 -0.28,0.6259 -0.6256,0.6259 -0.3455,0 -0.6256,-0.2804 -0.6256,-0.6259 0,-0.3456 0.2801,-0.6256 0.6256,-0.6256 z"
         style="fill:none;stroke:#ffffff;stroke-width:0.28349999;stroke-linecap:butt;stroke-linejoin:miter;stroke-dasharray:none"
         id="path1301"
         inkscape:connector-curvature="0" />
      <path
         d="m 12.5103,105.4463 c 0.3455,0 0.6256,0.28 0.6256,0.6256 0,0.3455 -0.2801,0.6259 -0.6256,0.6259 -0.3456,0 -0.6259,-0.2804 -0.6259,-0.6259 0,-0.3456 0.2803,-0.6256 0.6259,-0.6256 z"
         style="fill:none;stroke:#ffffff;stroke-width:0.28349999;stroke-linecap:butt;stroke-linejoin:miter;stroke-dasharray:none"
         id="path1303"
         inkscape:connector-curvature="0" />
      <path
         d="m 10.0053,108.5443 c 0.3456,0 0.6256,0.28 0.6256,0.6256 0,0.3455 -0.28,0.6258 -0.6256,0.6258 -0.3455,0 -0.6256,-0.2803 -0.6256,-0.6258 0,-0.3456 0.2801,-0.6256 0.6256,-0.6256 z"
         style="fill:none;stroke:#ffffff;stroke-width:0.28349999;stroke-linecap:butt;stroke-linejoin:miter;stroke-dasharray:none"
         id="path1305"
         inkscape:connector-curvature="0" />
      <path
         d="m 12.5103,108.5443 c 0.3455,0 0.6256,0.28 0.6256,0.6256 0,0.3455 -0.2801,0.6258 -0.6256,0.6258 -0.3456,0 -0.6259,-0.2803 -0.6259,-0.6258 0,-0.3456 0.2803,-0.6256 0.6259,-0.6256 z"
         style="fill:none;stroke:#ffffff;stroke-width:0.28349999;stroke-linecap:butt;stroke-linejoin:miter;stroke-dasharray:none"
         id="path1307"
         inkscape:connector-curvature="0" />
    </g>
  </g>
</svg>
